<svg width="88" height="88" viewBox="0 0 88 88" fill="none" xmlns="http://www.w3.org/2000/svg">
<path d="M28.9232 37.9238C27.2879 36.1429 25.857 36.1429 24.2217 37.9238C23.3018 38.9714 22.2797 40.019 21.1555 40.9619C19.1113 42.7428 19.0091 44.3143 21.0533 46.4095C28.0033 53.3238 34.749 60.3429 41.5968 67.3619C43.1299 69.0381 44.4586 69.3524 46.1961 67.5714C53.1462 60.3428 60.1985 53.1143 67.2507 45.8857C69.0904 44 68.1706 42.5333 67.2507 41.5905C66.1264 40.4381 65.2066 39.6 64.3889 38.4476C62.3448 35.8286 60.5051 36.2476 58.4609 38.5524C56.008 41.2762 53.2484 43.8952 49.9778 47.1428C49.9778 44.419 49.9778 2.2 49.9778 2.2C50.08 0.733334 48.9557 0 47.5248 0H40.5748C39.1439 0 37.8152 0.733333 37.8152 2.30476C37.8152 2.30476 37.9174 36.4571 37.9174 47.3524C36.8953 46.5143 31.4784 40.7524 28.9232 37.9238Z" fill="black"/>
<path d="M87.8978 34.363C87.8978 33.4201 87.0801 32.582 86.1603 32.582H79.8235C78.9036 32.582 77.6771 33.6297 77.6771 34.5725V77.5249H10.2207V34.5725C10.2207 33.6297 8.99419 32.582 8.07433 32.582H1.73751C0.817654 32.582 0 33.3154 0 34.363V39.3916V39.4963C0.204413 55.7344 0.204414 71.8677 0.30662 88.0011C26.9826 88.0011 60.9152 88.0011 87.6934 88.0011C87.7956 70.8201 87.7956 53.7439 88 36.563C88 36.4582 88 36.3535 88 36.1439V34.363H87.8978Z" fill="black"/>
</svg>
