<svg width="316" height="48" viewBox="0 0 316 48" fill="none" xmlns="http://www.w3.org/2000/svg">
<path d="M18.8203 17.2656C17.7734 17.625 16.8047 17.8203 15.9141 17.8516C14.1797 17.7578 12.7109 17.3984 11.5078 16.7734H11.3438L11.3672 22.4922L11.4844 23.2891L13.5469 23.3125L18.8203 17.2656ZM7.80469 32.8984C9.22656 32.1172 11.1406 31.6641 13.5469 31.5391C14.5156 31.5859 15.5234 31.7344 16.5703 31.9844C17.1484 32.1875 17.5781 32.3828 17.8594 32.5703C18.2031 29.6016 18.3125 27.2578 18.1875 25.5391L17.8828 25.2109L14.5312 25.1875L7.80469 32.8984ZM9.32812 35.3125C7.64062 35.6406 6.26562 36.1406 5.20312 36.8125C3.96875 37.3906 2.84375 38.0703 1.82812 38.8516L0.515625 39.7422L0.28125 39.7188C0.28125 39.3906 0.640625 38.8281 1.35938 38.0312C1.78125 37.25 2.51562 36.3281 3.5625 35.2656L12.375 25.0703L9.67969 25.1641C7.92969 25.3984 6.59375 25.7188 5.67188 26.125V26.0312C6.59375 23.7812 6.98438 21.4219 6.84375 18.9531C6.70312 17.0938 6.10938 16.1641 5.0625 16.1641H4.57031L2.03906 16.4688V16.3047C2.03906 16.1328 2.85938 15.8906 4.5 15.5781C5.85938 15.2188 7.38281 14.7969 9.07031 14.3125C10.5078 13.8438 11.8203 13.3828 13.0078 12.9297H13.2422L14.4609 13.6094L15.8672 13.9844C17.4609 14.2188 18.6016 14.2422 19.2891 14.0547L20.9297 13.8906C21.7422 13.6875 22.5312 13.3906 23.2969 13C23.875 12.8438 24.4453 12.4922 25.0078 11.9453L25.6641 11.7109L25.8281 12.3672L22.4766 15.8594L16.125 23.2656L17.6016 23.2422C19.2266 23.4609 20.8594 23.7734 22.5 24.1797C23.1875 24.2891 24.0781 24.6172 25.1719 25.1641V25.2578C24.5938 25.6484 24.2266 26.0703 24.0703 26.5234C23.7891 26.9922 23.5781 27.875 23.4375 29.1719C23.3438 31.4531 23.8828 33.0078 25.0547 33.8359V33.9062C25.0547 34.0625 24.9453 34.1406 24.7266 34.1406L24.2344 33.9766V34.0703L24.1641 33.9766H23.8359C21.9922 33.9766 20.0234 34.5391 17.9297 35.6641L15.7266 37.0469H15.5625C15.4531 37.0469 15.3359 36.8672 15.2109 36.5078C14.1953 35.6641 12.8438 35.2188 11.1562 35.1719C10.375 35.1719 9.76562 35.2188 9.32812 35.3125ZM37.0312 40.0938C37.4375 40.0938 37.8828 40.1016 38.3672 40.1172C39.9297 40.3047 41.3438 40.8047 42.6094 41.6172C43.6562 42.3828 44.3984 43.25 44.8359 44.2188L44.8594 44.4297C45.8438 43.7578 46.3047 42.4297 46.2422 40.4453C45.9766 38.7734 45.0859 37.6797 43.5703 37.1641L37.0312 40.0938ZM30.375 19.4922C30.2969 17.8516 29.5547 16.625 28.1484 15.8125C27.3516 15.7031 26.5859 15.6953 25.8516 15.7891L25.6172 15.625C25.7734 15.4219 26.3594 15.2188 27.375 15.0156C29.2656 14.25 30.7344 13.5078 31.7812 12.7891H31.9453C32.0547 12.7891 32.7188 13.2734 33.9375 14.2422C34.5938 14.8203 34.8516 16.0469 34.7109 17.9219L34.7344 30.5078C34.7031 31.0234 35.3438 31.5547 36.6562 32.1016C37.7031 32.5078 38.6406 32.9141 39.4688 33.3203C40.1406 33.6172 40.6797 33.8359 41.0859 33.9766L41.4844 34.2109L42.375 34.4688H42.4453L42.6094 34.3047V34.1406L42.7734 33.2031V19.375C42.9453 17.2031 41.9375 16.0078 39.75 15.7891L39.1172 15.8594H38.3203L38.0859 15.625C38.0859 15.4062 38.3203 15.2188 38.7891 15.0625L43.7812 13.0703L43.8047 13.0938C43.8516 13.0625 43.8906 13.0312 43.9219 13C44.2188 13 45.0703 13.7812 46.4766 15.3438C46.7734 15.5938 47.2188 15.6484 47.8125 15.5078L48.3047 15.2734C49.5391 14.7734 50.6094 14.1641 51.5156 13.4453C51.7188 13.4453 51.8203 13.3125 51.8203 13.0469H52.4766V13.1172C52.4609 13.4922 51.5078 14.5312 49.6172 16.2344L48.0469 17.8281C47.3438 18.5625 47.0234 19.4375 47.0859 20.4531L47.0625 32.7578C47.0312 34.1016 47.3516 34.8828 48.0234 35.1016L48.7969 35.6406C50.1094 36.7969 50.6172 38.4453 50.3203 40.5859C49.6328 43.0078 47.8828 44.7969 45.0703 45.9531C44.4766 46.2656 43.8203 46.5234 43.1016 46.7266L41.7422 47.1719C41.4297 47.125 41.25 46.9141 41.2031 46.5391C41.0938 45.7578 40.6562 44.9844 39.8906 44.2188C38.9844 43.3438 37.9609 42.9219 36.8203 42.9531H35.3906C34.5 43.0156 33.6172 43.2344 32.7422 43.6094C31.7109 43.9375 30.6094 44.5859 29.4375 45.5547C28.2188 46.5234 27.5469 47.0078 27.4219 47.0078L27.0938 47.0781V46.8438L27.375 46.2578C27.5469 45.6328 28.3438 44.6328 29.7656 43.2578C30.5469 42.4609 31.3438 41.7891 32.1562 41.2422L33.8672 40.0938L39.2109 37.3281C39.1797 37.3125 39.1562 37.2969 39.1406 37.2812C37.8906 36.3906 36.2734 35.8281 34.2891 35.5938C32.8516 35.4219 31.1719 35.7266 29.25 36.5078C27.9062 36.9922 26.6719 37.6875 25.5469 38.5938L25.1719 38.8047L24.8203 38.7344L25.5469 37.9375L26.4141 37.0703C27.6641 35.8984 28.4844 34.9766 28.875 34.3047C29.5 33.6797 29.9688 33.0391 30.2812 32.3828L30.3984 31.1406L30.375 19.4922ZM60.6562 16.7734L68.8594 13.0938C69.1406 12.9531 69.3984 12.8516 69.6328 12.7891C70.2891 12.5859 70.8828 12.6328 71.4141 12.9297C72.0078 13.4453 72.4844 14.0078 72.8438 14.6172C73.0781 14.3047 73.5234 13.9531 74.1797 13.5625C75.0391 13.1562 75.8047 12.8906 76.4766 12.7656C77.3516 12.5781 78.2422 12.5 79.1484 12.5312L79.2656 12.7656C78.4844 13.0469 77.8594 13.3125 77.3906 13.5625C75.625 14.9062 74.4922 16.1094 73.9922 17.1719C73.6641 17.7344 73.4297 18.6016 73.2891 19.7734V31.8906C73.4922 32.6406 73.8281 33.1406 74.2969 33.3906C75.0781 32.9375 75.9531 32.6719 76.9219 32.5938C77.7812 32.5625 78.9062 32.7031 80.2969 33.0156V33.1797L80.2031 33.2734V33.3438C78.7188 33.3906 77.6016 33.5391 76.8516 33.7891C75.7266 34.2422 74.7891 34.6953 74.0391 35.1484C73.5859 35.5078 73 36.1094 72.2812 36.9531L71.8359 36.9062C71.0391 36.6562 70.3438 36.0938 69.75 35.2188C69.2188 34.75 68.9922 33.7422 69.0703 32.1953V18.1328C69.1016 17.7109 68.8828 17.2969 68.4141 16.8906C68.0391 16.6875 67.7891 16.5312 67.6641 16.4219C67.5391 16.2969 67.2891 16.2344 66.9141 16.2344L60.7969 18.6719L60.5859 19.7266V30.7422C61.2891 31.7109 62.2422 32.4219 63.4453 32.875C64.1641 32.2969 64.8281 31.375 65.4375 30.1094L65.5547 30.0391C65.5859 29.9766 65.6172 29.9062 65.6484 29.8281H65.8828V29.9922H65.9766C65.9609 31.6953 65.5938 33.1406 64.875 34.3281L63.4688 36.1094C62.8125 36.7344 62.1562 37.0312 61.5 37C61.0781 36.2656 60.4531 35.6953 59.625 35.2891L58.8047 35.2422C57.6328 35.2891 56.5391 35.5703 55.5234 36.0859C54.2109 36.8047 53.2188 37.4844 52.5469 38.125L51.1641 39.1562H50.8359V39.0859C50.8359 38.8047 51.6641 37.8203 53.3203 36.1328C54.1016 35.1484 54.8672 33.875 55.6172 32.3125L55.9688 30.9531L55.9922 18.1328L55.5938 17.2656C55.25 16.6719 54.5781 16.25 53.5781 16C52.5938 15.9844 51.9141 15.9922 51.5391 16.0234L51.4688 15.4141L52.0078 15.2266L56.2266 13.4219L57.7969 12.6484H58.125C59.4844 13.1953 60.2969 13.8047 60.5625 14.4766C60.75 14.6797 60.7812 15.4453 60.6562 16.7734ZM99.5156 31.9844C98.3438 33.0781 97.5156 33.75 97.0312 34C96.5625 34.2344 96.3203 34.3594 96.3047 34.375L92.1094 36.3203C91.3594 36.8203 90.5859 37.0625 89.7891 37.0469L87.8203 35.9922C87.1641 35.7109 86.5156 35.6484 85.875 35.8047C84.875 35.9453 83.4297 36.4297 81.5391 37.2578H81.2812V37.1641C81.6406 36.6797 82.0234 36.3047 82.4297 36.0391C83.5703 34.8984 84.1797 33.8359 84.2578 32.8516V32.1953L84.2344 19.7969L84.2578 18.25H83.9297C82.1016 18.2344 80.7812 20.6719 79.9688 25.5625L79.7109 25.8203C79.6328 25.8203 79.5 25.6016 79.3125 25.1641C79.3594 23.4141 79.5312 21.6953 79.8281 20.0078C80.4375 17.7578 81.5625 16.1328 83.2031 15.1328C83.4688 15.0547 83.7578 14.9766 84.0703 14.8984V5.33594C84.0703 5.22656 84.0938 5.13281 84.1406 5.05469H84.1641C84.3047 4.85156 86.6328 3.72656 91.1484 1.67969C92.4297 0.992188 93.4531 0.625 94.2188 0.578125C94.9375 0.453125 95.2422 0.5625 95.1328 0.90625C94.2109 1.1875 92.4297 2.65625 89.7891 5.3125C89.0078 6.34375 88.6094 7.75 88.5938 9.53125V14.8281C89.3281 14.9375 90.3906 14.7578 91.7812 14.2891C92.6562 13.7734 93.2344 13.0703 93.5156 12.1797C93.7344 11.7109 93.8438 11.3516 93.8438 11.1016L93.7734 10.375L93.8438 10.3047H93.9375C94.0938 10.4766 94.1719 10.9375 94.1719 11.6875C94.1875 13.1562 93.9062 14.5781 93.3281 15.9531C92.7812 16.9375 91.9297 17.5469 90.7734 17.7812C89.2578 17.8125 88.6094 18.0312 88.8281 18.4375V31.5391C88.7969 32.6328 89.6875 33.5469 91.5 34.2812C94.8125 33.9844 97.4688 33.0312 99.4688 31.4219L99.5156 31.9844ZM102.773 6.50781L102.75 5.875C102.516 5.125 102.148 4.58594 101.648 4.25781L101.086 4.21094L100.922 3.97656V3.88281C100.922 3.71094 101.219 3.55469 101.812 3.41406C102.328 3.35156 102.922 3.39844 103.594 3.55469C104.203 3.66406 104.695 4.03906 105.07 4.67969C105.242 3.53906 106.07 2.52344 107.555 1.63281C108.883 1.24219 109.883 1.04688 110.555 1.04688H110.953C111.859 1.04688 112.312 1.21094 112.312 1.53906V1.63281L112.242 1.70312V1.79688L111.234 1.70312C110.312 1.70312 109.25 2.40625 108.047 3.8125C107.656 4.59375 107.359 5.375 107.156 6.15625V15.2734L107.133 16.4922L116.156 13.3516C116.828 13.0703 117.383 12.9062 117.82 12.8594H117.914C118.133 12.9688 118.383 13.3203 118.664 13.9141C118.898 14.3516 119.43 14.625 120.258 14.7344H121.055L122.438 14.4766C122.703 14.5547 122.836 14.6406 122.836 14.7344V14.8047C122.773 14.9453 122.477 15.1328 121.945 15.3672C121.133 16.0703 120.727 16.5547 120.727 16.8203C120.445 17.3047 120.258 18.0625 120.164 19.0938L120.141 31.3516C120.016 33.3516 120.539 34.9531 121.711 36.1562C122.086 36.7031 122.273 37.0781 122.273 37.2812H122.18C121.477 36.5625 120.617 36.1562 119.602 36.0625C117.898 36.25 116.875 36.5781 116.531 37.0469C115.047 38.0781 114.336 39.6484 114.398 41.7578C114.367 43.0078 114.664 43.9375 115.289 44.5469C116.336 45.7812 117.953 46.3984 120.141 46.3984H120.305L121.922 46L122.484 45.8594V46.0938L121.5 46.7266L119.719 47.125C116.969 47.125 115.148 46.6641 114.258 45.7422C113.273 44.9922 112.68 43.9609 112.477 42.6484C112.258 42.3359 112.227 41.4062 112.383 39.8594C112.523 38.7656 112.844 37.6875 113.344 36.625C113.906 35.4375 114.586 34.4219 115.383 33.5781L115.594 32.2422C115.672 31.9766 115.695 27.5781 115.664 19.0469C115.773 17.9531 115.484 17.1094 114.797 16.5156L113.859 15.9531C113.266 16 111.43 16.6016 108.352 17.7578C107.742 17.9297 107.289 18.1094 106.992 18.2969V19.4219L106.898 29.6875C106.836 31.2031 107.258 32.2266 108.164 32.7578C108.977 33.3516 109.578 33.6484 109.969 33.6484C110.719 33.6484 111.852 33.1406 113.367 32.125H113.461L113.531 32.3594C113.266 32.8906 112.859 33.5625 112.312 34.375C111.688 35.1094 111.047 35.7031 110.391 36.1562C109.719 36.75 109.125 37.0469 108.609 37.0469C108.328 37.0469 108.039 36.8672 107.742 36.5078C107.133 36.0078 106.398 35.7266 105.539 35.6641H105.281C103.625 35.7109 102.281 36.1719 101.25 37.0469C100.703 37.2812 100 37.7422 99.1406 38.4297C98.625 38.4922 98.5703 38.2734 98.9766 37.7734C100.352 35.9922 101.414 34.3438 102.164 32.8281C102.523 32 102.758 31.0938 102.867 30.1094L102.773 6.50781ZM147.117 40.0938C147.523 40.0938 147.969 40.1016 148.453 40.1172C150.016 40.3047 151.43 40.8047 152.695 41.6172C153.742 42.3828 154.484 43.25 154.922 44.2188L154.945 44.4297C155.93 43.7578 156.391 42.4297 156.328 40.4453C156.062 38.7734 155.172 37.6797 153.656 37.1641L147.117 40.0938ZM145.102 16.6562C144.961 17.0312 144.867 17.4844 144.82 18.0156V30.5078C144.789 31.0234 145.43 31.5547 146.742 32.1016C147.789 32.5078 148.727 32.9141 149.555 33.3203C150.227 33.6172 150.766 33.8359 151.172 33.9766L151.57 34.2109L152.461 34.4688H152.531L152.695 34.3047V34.1406L152.859 33.2031V18.7656L152.953 18.3672V18.1328C150.375 16.8516 148.875 16.125 148.453 15.9531L145.102 16.6562ZM152.227 13.0234H152.391C152.625 13.0859 153.055 13.4688 153.68 14.1719C154.367 14.7344 155.195 15.0547 156.164 15.1328C157.211 15.2578 158.281 15.1328 159.375 14.7578C160.344 14.4297 161.219 14.1484 162 13.9141H162.398V14.0078C161.023 14.9141 160.031 15.5859 159.422 16.0234C158.438 16.7734 157.867 17.4219 157.711 17.9688C157.445 18.375 157.258 18.9375 157.148 19.6562V32.7578C157.117 34.1016 157.438 34.8828 158.109 35.1016L158.883 35.6406C160.195 36.7969 160.703 38.4453 160.406 40.5859C159.719 43.0078 157.969 44.7969 155.156 45.9531C154.562 46.2656 153.906 46.5234 153.188 46.7266L151.828 47.1719C151.516 47.125 151.336 46.9141 151.289 46.5391C151.18 45.7578 150.742 44.9844 149.977 44.2188C149.07 43.3438 148.047 42.9219 146.906 42.9531H145.477C144.586 43.0156 143.703 43.2344 142.828 43.6094C141.797 43.9375 140.695 44.5859 139.523 45.5547C138.305 46.5234 137.633 47.0078 137.508 47.0078L137.18 47.0781V46.8438L137.461 46.2578C137.633 45.6328 138.43 44.6328 139.852 43.2578C140.633 42.4609 141.43 41.7891 142.242 41.2422L143.953 40.0938L149.297 37.3281C149.266 37.3125 149.242 37.2969 149.227 37.2812C147.977 36.3906 146.359 35.8281 144.375 35.5938C142.938 35.4219 141.258 35.7266 139.336 36.5078C137.992 36.9922 136.758 37.6875 135.633 38.5938L135.258 38.8047L134.906 38.7344L135.633 37.9375L136.5 37.0703C137.75 35.8984 138.57 34.9766 138.961 34.3047C139.586 33.6797 140.055 33.0391 140.367 32.3828L140.484 31.1406V20.5C140.219 19.4062 139.625 18.5078 138.703 17.8047C138.234 17.3203 137.484 17.0469 136.453 16.9844L136.195 17.0781L135.562 16.6562C136.844 16.3125 139.227 15.8125 142.711 15.1562L152.227 13.0234ZM170.93 35.3594C170.977 35.3594 171.18 35.3125 171.539 35.2188L176.133 32.8516C176.617 32.7734 176.906 32.3203 177 31.4922L177.023 18.2031H176.953L177.023 18.1094V17.9688C176.758 17.6094 176.219 17.1172 175.406 16.4922H175.336C174.898 16.7734 173.297 17.1562 170.531 17.6406L169.289 17.4297L169.945 18.4375L172.406 22.0234C172.484 22.0234 172.617 22.2109 172.805 22.5859C172.617 22.9141 172.258 23.2031 171.727 23.4531C170.242 24.4375 169.078 25.3359 168.234 26.1484C167 27.5703 166.352 28.9922 166.289 30.4141C166.289 31.8828 166.969 33.375 168.328 34.8906C169.219 35.3906 170.031 35.5469 170.766 35.3594H170.93ZM170.531 37.1875V37.1641L170.039 37.2344L166.453 37.1641C165.156 36.8203 164.344 36.3828 164.016 35.8516C163.297 35.0391 162.859 34.3359 162.703 33.7422C162.578 33.4297 162.5 32.6953 162.469 31.5391C162.469 30.1797 163.117 28.7422 164.414 27.2266L165 26.5C165.875 25.7656 166.516 25.2734 166.922 25.0234C167.344 24.7578 167.773 24.4922 168.211 24.2266C169.008 23.6797 169.906 23.0859 170.906 22.4453L170.695 21.9531L169.477 20.2422V20.2188L169.219 19.8672H169.195L168.797 19.2812L168.68 19.0938H168.656L168.141 18.3672V18.3438L168 18.1562L167.906 18.0391H167.883L167.344 17.2656L165.82 15.25L165.844 15.2266C165.828 15.2109 165.812 15.1953 165.797 15.1797C165.203 14.1172 164.906 13.5 164.906 13.3281V13.1641H165.164C166.727 14.8984 167.961 15.8047 168.867 15.8828L169.477 16.0938L171.141 16.0469C173.922 15.5469 175.75 15.0156 176.625 14.4531L177.844 13.4688V13.4922C178.094 13.1641 178.281 13 178.406 13L178.758 13.5391L179.508 14.0312C180.148 14.2031 180.68 14.1797 181.102 13.9609C182.383 13.5547 183.469 12.7188 184.359 11.4531L185.414 10.7266H185.508L185.648 10.8672V11.0312C185.648 11.6719 184.594 13.0078 182.484 15.0391C181.469 16.1172 180.914 17.1094 180.82 18.0156L180.773 32.2891V32.7578C180.773 33.7266 181.07 34.3828 181.664 34.7266H181.922C183.234 34.6641 184.344 33.8984 185.25 32.4297L185.438 32.0078H185.602L185.508 32.8516C184.805 34.1484 184.289 34.9375 183.961 35.2188C183.086 36.25 181.781 36.9219 180.047 37.2344L179.32 37.1641C178.68 37.0391 178.188 36.875 177.844 36.6719C177.188 36.2812 176.922 35.6328 177.047 34.7266C176.922 34.3359 176.727 34.1953 176.461 34.3047L171.398 37.0234L170.531 37.1875ZM202.383 30.7656V19.3047C202.383 17.6484 201.641 16.6641 200.156 16.3516C199.938 16.2422 199.633 16.1875 199.242 16.1875H198.586L198.422 16.0234C198.469 15.6953 199.938 14.875 202.828 13.5625C203.438 13.1719 203.969 12.9766 204.422 12.9766C204.562 12.9766 205.328 13.4688 206.719 14.4531C208.719 14.4531 210.664 14.0469 212.555 13.2344L213.047 13.0703L212.906 13.5156C211.344 13.9219 209.508 15.1797 207.398 17.2891L207.047 18.1797V32.4531C207.203 32.8125 207.508 33.0859 207.961 33.2734C210.398 33.6328 212.016 34.0469 212.812 34.5156C214.984 35.5781 216.273 36.3984 216.68 36.9766V37.3047H216.352C215.617 36.8047 214.984 36.5547 214.453 36.5547C212.906 36.0859 211.617 35.8438 210.586 35.8281C210.164 35.8281 209.648 35.8828 209.039 35.9922C208.664 35.9922 208.25 36.2344 207.797 36.7188L207.469 36.8828C207.172 37.1328 206.734 37.2969 206.156 37.375C204.516 37.0938 203.312 36.5781 202.547 35.8281C202.234 35.2656 201.961 34.7969 201.727 34.4219L197.531 36.5547C197.125 36.8203 196.523 37.0156 195.727 37.1406L195.141 37.2109C194.234 37.2109 193.469 36.8281 192.844 36.0625C192.609 35.875 192.281 35.8203 191.859 35.8984C190.094 36.3516 188.766 36.7891 187.875 37.2109C186.734 37.7266 185.898 38.1406 185.367 38.4531L184.547 38.8516L184.477 38.7812V38.6875C186.07 37.2812 187.711 35.4766 189.398 33.2734C189.883 32.7266 190.195 32.1328 190.336 31.4922V20.5703C190.305 19.1953 189.883 18.1172 189.07 17.3359C188.539 16.6797 187.828 16.3516 186.938 16.3516C186.266 16.3516 185.281 16.625 183.984 17.1719H183.727V16.8438C184.633 16.2031 186.055 15.4297 187.992 14.5234C189.445 13.6953 190.484 13.2109 191.109 13.0703H191.273C192.586 13.0703 193.656 14.1328 194.484 16.2578L194.742 17.9922V32.2422C194.914 32.9609 195.766 33.5859 197.297 34.1172L197.93 34.2344L202.289 32.1016L202.383 30.7656ZM222.516 16.7734L230.719 13.0938C231 12.9531 231.258 12.8516 231.492 12.7891C232.148 12.5859 232.742 12.6328 233.273 12.9297C233.867 13.4453 234.344 14.0078 234.703 14.6172C234.938 14.3047 235.383 13.9531 236.039 13.5625C236.898 13.1562 237.664 12.8906 238.336 12.7656C239.211 12.5781 240.102 12.5 241.008 12.5312L241.125 12.7656C240.344 13.0469 239.719 13.3125 239.25 13.5625C237.484 14.9062 236.352 16.1094 235.852 17.1719C235.523 17.7344 235.289 18.6016 235.148 19.7734V31.8906C235.352 32.6406 235.688 33.1406 236.156 33.3906C236.938 32.9375 237.812 32.6719 238.781 32.5938C239.641 32.5625 240.766 32.7031 242.156 33.0156V33.1797L242.062 33.2734V33.3438C240.578 33.3906 239.461 33.5391 238.711 33.7891C237.586 34.2422 236.648 34.6953 235.898 35.1484C235.445 35.5078 234.859 36.1094 234.141 36.9531L233.695 36.9062C232.898 36.6562 232.203 36.0938 231.609 35.2188C231.078 34.75 230.852 33.7422 230.93 32.1953V18.1328C230.961 17.7109 230.742 17.2969 230.273 16.8906C229.898 16.6875 229.648 16.5312 229.523 16.4219C229.398 16.2969 229.148 16.2344 228.773 16.2344L222.656 18.6719L222.445 19.7266V30.7422C223.148 31.7109 224.102 32.4219 225.305 32.875C226.023 32.2969 226.688 31.375 227.297 30.1094L227.414 30.0391C227.445 29.9766 227.477 29.9062 227.508 29.8281H227.742V29.9922H227.836C227.82 31.6953 227.453 33.1406 226.734 34.3281L225.328 36.1094C224.672 36.7344 224.016 37.0312 223.359 37C222.938 36.2656 222.312 35.6953 221.484 35.2891L220.664 35.2422C219.492 35.2891 218.398 35.5703 217.383 36.0859C216.07 36.8047 215.078 37.4844 214.406 38.125L213.023 39.1562H212.695V39.0859C212.695 38.8047 213.523 37.8203 215.18 36.1328C215.961 35.1484 216.727 33.875 217.477 32.3125L217.828 30.9531L217.852 18.1328L217.453 17.2656C217.109 16.6719 216.438 16.25 215.438 16C214.453 15.9844 213.773 15.9922 213.398 16.0234L213.328 15.4141L213.867 15.2266L218.086 13.4219L219.656 12.6484H219.984C221.344 13.1953 222.156 13.8047 222.422 14.4766C222.609 14.6797 222.641 15.4453 222.516 16.7734ZM261.375 31.9844C260.203 33.0781 259.375 33.75 258.891 34C258.422 34.2344 258.18 34.3594 258.164 34.375L253.969 36.3203C253.219 36.8203 252.445 37.0625 251.648 37.0469L249.68 35.9922C249.023 35.7109 248.375 35.6484 247.734 35.8047C246.734 35.9453 245.289 36.4297 243.398 37.2578H243.141V37.1641C243.5 36.6797 243.883 36.3047 244.289 36.0391C245.43 34.8984 246.039 33.8359 246.117 32.8516V32.1953L246.094 19.7969L246.117 18.25H245.789C243.961 18.2344 242.641 20.6719 241.828 25.5625L241.57 25.8203C241.492 25.8203 241.359 25.6016 241.172 25.1641C241.219 23.4141 241.391 21.6953 241.688 20.0078C242.297 17.7578 243.422 16.1328 245.062 15.1328C245.328 15.0547 245.617 14.9766 245.93 14.8984V5.33594C245.93 5.22656 245.953 5.13281 246 5.05469H246.023C246.164 4.85156 248.492 3.72656 253.008 1.67969C254.289 0.992188 255.312 0.625 256.078 0.578125C256.797 0.453125 257.102 0.5625 256.992 0.90625C256.07 1.1875 254.289 2.65625 251.648 5.3125C250.867 6.34375 250.469 7.75 250.453 9.53125V14.8281C251.188 14.9375 252.25 14.7578 253.641 14.2891C254.516 13.7734 255.094 13.0703 255.375 12.1797C255.594 11.7109 255.703 11.3516 255.703 11.1016L255.633 10.375L255.703 10.3047H255.797C255.953 10.4766 256.031 10.9375 256.031 11.6875C256.047 13.1562 255.766 14.5781 255.188 15.9531C254.641 16.9375 253.789 17.5469 252.633 17.7812C251.117 17.8125 250.469 18.0312 250.688 18.4375V31.5391C250.656 32.6328 251.547 33.5469 253.359 34.2812C256.672 33.9844 259.328 33.0312 261.328 31.4219L261.375 31.9844ZM271.523 34.9375C271.289 35.5312 270.594 36.2891 269.438 37.2109H269.109C268.234 36.5547 267.562 36.2266 267.094 36.2266L265.992 36.3906C264.727 36.875 263.797 37.3906 263.203 37.9375C262.609 38.375 262.016 38.8828 261.422 39.4609L261.094 39.7188L260.695 39.625V39.5547C260.695 39.2734 261.156 38.6797 262.078 37.7734C263.672 35.7109 264.531 32.9609 264.656 29.5234L264.68 9.57812V7.1875C264.383 5.79688 263.891 4.80469 263.203 4.21094L262.477 4.04688H262.312V3.88281C262.312 3.72656 262.586 3.59375 263.133 3.48438C264.617 3.48438 265.695 3.83594 266.367 4.53906H266.508C267.305 2.85156 268.305 1.66406 269.508 0.976562C270.461 0.539062 271.352 0.351562 272.18 0.414062C272.398 0.492187 272.508 0.570313 272.508 0.648438V0.742188C271.57 1.25781 270.734 2.10156 270 3.27344C269.406 4.42969 269.125 5.82031 269.156 7.44531L269.18 27.4844C269.102 30.3281 269.234 32.0156 269.578 32.5469C269.781 32.8281 270.039 33.0469 270.352 33.2031H270.516C271.469 32.7031 272.477 31.375 273.539 29.2188L274.008 29.5938C273.336 31.3438 272.508 33.125 271.523 34.9375ZM289.969 24.2031L290.203 23.9688C290.078 23.9219 289.734 23.6016 289.172 23.0078L283.477 16.9375L283.078 17.125C282.906 17.125 282.836 17.25 282.867 17.5V26.7578L282.914 27.3438L289.969 24.2031ZM282.984 31.3047C283.812 32.1328 285.414 32.9141 287.789 33.6484C289.32 33.1484 290.617 32.5938 291.68 31.9844C292.227 31.7344 293.234 31.125 294.703 30.1562C295.094 29.875 295.367 29.7422 295.523 29.7578L295.594 29.8281V29.9219C295.594 30.4219 294.812 31.3438 293.25 32.6875C292.453 33.3906 291.664 33.875 290.883 34.1406C290.445 34.4531 289.93 34.75 289.336 35.0312L285.586 36.7422L285.188 36.9766C284.719 37.0078 284.398 36.8203 284.227 36.4141C284.102 36.0078 283.688 35.7656 282.984 35.6875L282.258 35.6172C280.93 35.6172 279.539 35.9609 278.086 36.6484L275.883 37.6328L274.219 38.5938C273.188 39.2656 272.531 39.6016 272.25 39.6016V39.4375C273.469 38.4688 274.414 37.7266 275.086 37.2109C275.742 36.6953 276.578 35.7891 277.594 34.4922C278.203 33.7266 278.562 32.6406 278.672 31.2344V28.0469L278.648 27.3672L278.602 22.0234C278.555 20.1484 278.281 18.7891 277.781 17.9453C277.062 17.0078 276.25 16.4922 275.344 16.3984H273.797V16.0703H274.125L276.234 15.4375L280.617 14.2891L284.672 13.0703L285 13.0234H285.234L285.586 13.1406C285.867 13.2969 286.25 13.5938 286.734 14.0312C287.328 14.7344 287.844 15.25 288.281 15.5781L295.102 22.9844L295.477 23.5703C295.492 23.9922 294.984 24.2734 293.953 24.4141L289.5 26.5L283.242 29.3125L282.984 29.5703V31.3047ZM315.375 31.9844C314.203 33.0781 313.375 33.75 312.891 34C312.422 34.2344 312.18 34.3594 312.164 34.375L307.969 36.3203C307.219 36.8203 306.445 37.0625 305.648 37.0469L303.68 35.9922C303.023 35.7109 302.375 35.6484 301.734 35.8047C300.734 35.9453 299.289 36.4297 297.398 37.2578H297.141V37.1641C297.5 36.6797 297.883 36.3047 298.289 36.0391C299.43 34.8984 300.039 33.8359 300.117 32.8516V32.1953L300.094 19.7969L300.117 18.25H299.789C297.961 18.2344 296.641 20.6719 295.828 25.5625L295.57 25.8203C295.492 25.8203 295.359 25.6016 295.172 25.1641C295.219 23.4141 295.391 21.6953 295.688 20.0078C296.297 17.7578 297.422 16.1328 299.062 15.1328C299.328 15.0547 299.617 14.9766 299.93 14.8984V5.33594C299.93 5.22656 299.953 5.13281 300 5.05469H300.023C300.164 4.85156 302.492 3.72656 307.008 1.67969C308.289 0.992188 309.312 0.625 310.078 0.578125C310.797 0.453125 311.102 0.5625 310.992 0.90625C310.07 1.1875 308.289 2.65625 305.648 5.3125C304.867 6.34375 304.469 7.75 304.453 9.53125V14.8281C305.188 14.9375 306.25 14.7578 307.641 14.2891C308.516 13.7734 309.094 13.0703 309.375 12.1797C309.594 11.7109 309.703 11.3516 309.703 11.1016L309.633 10.375L309.703 10.3047H309.797C309.953 10.4766 310.031 10.9375 310.031 11.6875C310.047 13.1562 309.766 14.5781 309.188 15.9531C308.641 16.9375 307.789 17.5469 306.633 17.7812C305.117 17.8125 304.469 18.0312 304.688 18.4375V31.5391C304.656 32.6328 305.547 33.5469 307.359 34.2812C310.672 33.9844 313.328 33.0312 315.328 31.4219L315.375 31.9844Z" fill="black"/>
</svg>
